<?xml version="1.0" encoding="utf-8"?>
<!-- Generator: Adobe Illustrator 19.0.0, SVG Export Plug-In . SVG Version: 6.00 Build 0)  -->
<svg version="1.1" id="Layer_1" xmlns="http://www.w3.org/2000/svg" xmlns:xlink="http://www.w3.org/1999/xlink" x="0px" y="0px" width="222" height="42"
	 viewBox="0 0 220.2 40.8" enable-background="new 0 0 220.2 40.8" xml:space="preserve">
<g>
	<path fill-rule="evenodd" clip-rule="evenodd" fill="#6C7D8E" d="M107.2,26.9h3.3V15H124v-2.9h-13.6V3.6h13.9V0.7h-17.1V26.9z
		 M131.6,11V8h-2.9v18.9h2.9V13.5c0.9-1.5,3.3-3,5.1-3c0.5,0,0.8,0,1.2,0.1v-3C135.3,7.6,133.1,9,131.6,11z M149,7.5
		c-3.1,0-5.5,1-7.6,3.1l1.4,2c1.7-1.8,3.5-2.6,5.8-2.6c2.7,0,4.8,1.5,4.8,4v3.4c-1.5-1.8-3.7-2.6-6.3-2.6c-3.2,0-6.6,2-6.6,6.2
		c0,4.1,3.4,6.3,6.6,6.3c2.5,0,4.7-0.9,6.3-2.6v2.2h2.9v-13C156.3,9.3,153,7.5,149,7.5z M153.4,22.9c-1.1,1.6-3.1,2.4-5.2,2.4
		c-2.7,0-4.7-1.7-4.7-4.1c0-2.4,1.9-4.2,4.7-4.2c2.1,0,4.1,0.8,5.2,2.4V22.9z M171.9,7.5c-2.8,0-5.4,1.6-6.7,3.2V8h-2.9v18.9h2.9V13
		c1.1-1.5,3.3-2.9,5.6-2.9c2.5,0,4.2,1.1,4.2,4.4v12.4h2.9V13.6C177.9,9.5,175.8,7.5,171.9,7.5z M192.3,10.1c2,0,3.6,0.7,4.8,2.5
		l2-1.8c-1.5-1.9-3.5-3.3-6.9-3.3c-5.6,0-9.4,4.3-9.4,9.9c0,5.6,3.8,10,9.4,10c3.4,0,5.5-1.4,6.9-3.3l-2-1.8
		c-1.3,1.7-2.9,2.5-4.8,2.5c-4,0-6.5-3.1-6.5-7.3C185.7,13.2,188.2,10.1,192.3,10.1z M212.9,7.5c-2.9,0-5.4,1.6-6.8,3.2v-10h-2.9
		v26.1h2.9V13c1.1-1.5,3.3-2.9,5.6-2.9c2.5,0,4.3,1,4.3,4.3v12.5h2.9V13.5C218.9,9.4,216.8,7.5,212.9,7.5z"/>
	<path fill-rule="evenodd" clip-rule="evenodd" d="M69.5,13.4c2.5-0.5,4.5-2.7,4.5-6c0-3.5-2.5-6.7-7.5-6.7H52.7v26.1h14.2
		c5,0,7.6-3.1,7.6-7.1C74.5,16.5,72.3,13.8,69.5,13.4z M58.3,5.5h7c1.9,0,3.1,1.2,3.1,2.9c0,1.6-1.2,2.8-3.1,2.8h-7V5.5z M65.5,22.1
		h-7.2V16h7.2c2.2,0,3.4,1.4,3.4,3.1C68.8,20.9,67.6,22.1,65.5,22.1z M78.6,26.9h5V8h-5V26.9z M81,0c-1.6,0-3,1.3-3,2.9
		c0,1.6,1.4,3,3,3c1.6,0,3-1.3,3-3C84,1.3,82.7,0,81,0z M92.3,13.2c0-1.1,1.2-1.9,3-1.9c2.3,0,4.5,1,5.6,2.2l2-3.4
		c-1.9-1.5-4.4-2.6-7.6-2.6c-5,0-7.8,2.8-7.8,6c0,7.4,11.2,4.9,11.2,8c0,1.2-1,2-3.2,2c-2.4,0-5.2-1.3-6.5-2.6l-2.2,3.5
		c2,1.8,5.2,2.9,8.5,2.9c5.3,0,8.2-2.6,8.2-6.1C103.5,13.6,92.3,16,92.3,13.2z"/>
	<path fill-rule="evenodd" clip-rule="evenodd" fill="#B0B0B0" d="M57.9,37.4c0.6-0.1,1.1-0.7,1.1-1.5c0-0.9-0.6-1.6-1.8-1.6h-3.4
		v6.4h3.5c1.2,0,1.9-0.8,1.9-1.7C59.1,38.2,58.6,37.5,57.9,37.4z M55.1,35.5h1.7c0.5,0,0.8,0.3,0.8,0.7c0,0.4-0.3,0.7-0.8,0.7h-1.7
		V35.5z M56.9,39.5h-1.8V38h1.8c0.5,0,0.8,0.3,0.8,0.8C57.7,39.2,57.4,39.5,56.9,39.5z M67.8,40.7h1.4v-6.4h-1.4V40.7z M65.1,36.6
		h-1.6v-2.3h-1.4v6.4h3c1.4,0,2.2-0.9,2.2-2.1C67.2,37.5,66.5,36.6,65.1,36.6z M64.9,39.5h-1.5v-1.7h1.5c0.5,0,0.9,0.3,0.9,0.9
		C65.8,39.2,65.4,39.5,64.9,39.5z M75.4,36.6h-1.7v-1.1H77v-1.2h-4.7v6.4h3c1.4,0,2.1-0.9,2.1-2C77.5,37.6,76.7,36.6,75.4,36.6z
		 M75.2,39.5h-1.5v-1.7h1.5c0.5,0,0.9,0.3,0.9,0.8C76.1,39.2,75.7,39.5,75.2,39.5z M83.3,34.2c-1.9,0-3.4,1.4-3.4,3.3
		c0,1.9,1.4,3.3,3.4,3.3c1.9,0,3.4-1.4,3.4-3.3C86.7,35.6,85.3,34.2,83.3,34.2z M83.3,39.6c-1.2,0-1.9-0.9-1.9-2.1
		c0-1.2,0.8-2.1,1.9-2.1c1.2,0,2,0.9,2,2.1C85.3,38.7,84.5,39.6,83.3,39.6z M92.6,34.3h-3v6.4h1.4v-2.3h1.6c1.4,0,2.2-1,2.2-2.1
		C94.7,35.2,93.9,34.3,92.6,34.3z M92.4,37.2h-1.5v-1.7h1.5c0.5,0,0.9,0.3,0.9,0.9C93.3,36.9,92.9,37.2,92.4,37.2z M102.7,37.6
		c-0.2,1.7-0.6,2-1.2,2v1.2c1.3,0,2.3-0.5,2.6-3.2l0.3-2.2h2v5.2h1.4v-6.4h-4.6L102.7,37.6z M113.3,37.7l-1.6-3.4h-1.6l2.4,4.7
		c-0.3,0.5-0.5,0.7-0.9,0.7c-0.3,0-0.6-0.2-0.8-0.3l-0.5,1.1c0.3,0.3,0.9,0.5,1.5,0.5c1.1,0,1.7-0.6,2.1-1.3l2.6-5.2h-1.5
		L113.3,37.7z M122.6,37c-0.3,0.1-0.8,0.2-1.2,0.2c-0.7,0-1.2-0.3-1.2-1.2v-1.8h-1.4v1.8c0,1.4,0.8,2.4,2.4,2.4c0.5,0,1-0.1,1.4-0.2
		v2.5h1.4v-6.4h-1.4V37z M133.9,39.5h-2v-5.2h-1.4v5.2h-2v-5.2h-1.4v6.4h8.2v-6.4h-1.4V39.5z M139.9,38.4v-4.1h-1.4v6.4h1.3l3.1-4.3
		v4.3h1.4v-6.4h-1.4L139.9,38.4z M153.1,34.3h-1.6l-1.5,2.2l-1.5-2.2h-1.6l2.2,3.1l-2.3,3.3h1.6l1.6-2.3l1.6,2.3h1.6l-2.3-3.3
		L153.1,34.3z M164.3,34.9v-0.7H163v0.7c-1.9,0.2-3.1,1.1-3.1,2.6c0,1.5,1.2,2.4,3.1,2.6v0.6h1.4v-0.6c1.9-0.2,3.1-1.1,3.1-2.6
		C167.4,36,166.3,35.1,164.3,34.9z M163,38.8c-1.1-0.1-1.7-0.6-1.7-1.3c0-0.7,0.6-1.2,1.7-1.3V38.8z M164.3,38.8v-2.7
		c1.1,0.1,1.7,0.6,1.7,1.3C166,38.2,165.4,38.7,164.3,38.8z M173.3,34.3h-3v6.4h1.4v-2.3h1.6c1.4,0,2.2-1,2.2-2.1
		C175.5,35.2,174.7,34.3,173.3,34.3z M173.1,37.2h-1.5v-1.7h1.5c0.5,0,0.9,0.3,0.9,0.9C174.1,36.9,173.7,37.2,173.1,37.2z
		 M179.3,34.3l-2.5,6.4h1.6l0.4-1.1h2.8l0.4,1.1h1.6l-2.5-6.4H179.3z M179.2,38.4l1-2.8l1,2.8H179.2z M190.4,36.8h-3v-2.5H186v6.4
		h1.4V38h3v2.7h1.4v-6.4h-1.4V36.8z M201.8,39.5h-2v-5.2h-1.4v5.2h-2v-5.2H195v6.4h8.2v-6.4h-1.4V39.5z M207.8,38.4v-4.1h-1.4v6.4
		h1.3l3.1-4.3v4.3h1.4v-6.4h-1.4L207.8,38.4z M218.7,37.4c0.7-0.1,1.4-0.7,1.4-1.5c0-1.1-1-1.7-2.5-1.7c-1.1,0-2,0.4-2.6,1l0.7,0.9
		c0.5-0.4,1.1-0.7,1.7-0.7c0.7,0,1.3,0.3,1.3,0.8c0,0.5-0.5,0.7-1.3,0.7h-1.3v1.2h1.3c1,0,1.4,0.2,1.4,0.7c0,0.5-0.5,0.8-1.3,0.8
		c-0.6,0-1.4-0.3-1.9-0.7l-0.7,0.9c0.5,0.6,1.5,1,2.6,1c1.5,0,2.6-0.8,2.6-1.9C220.2,38,219.3,37.5,218.7,37.4z"/>
	<path fill-rule="evenodd" clip-rule="evenodd" fill="#F79E00" d="M39,1.5H1c-0.6,0-1,0.4-1,1v1c0,0.6,0.4,1,1,1h8.2v25l10.7-7.1
		l10.9,7.1v-25H39c0.6,0,1-0.4,1-1v-1C40,2,39.6,1.5,39,1.5z"/>
</g>
</svg>
